<svg xmlns="http://www.w3.org/2000/svg" width="22.108" height="22.108" viewBox="0 0 22.108 22.108">
  <path id="Icon_awesome-pencil-alt" data-name="Icon awesome-pencil-alt" d="M21.5,6.138,19.51,8.129a.519.519,0,0,1-.734,0L13.983,3.336a.519.519,0,0,1,0-.734L15.973.611a2.077,2.077,0,0,1,2.932,0l2.6,2.6A2.069,2.069,0,0,1,21.5,6.138ZM12.273,4.311.933,15.651.018,20.9a1.038,1.038,0,0,0,1.2,1.2l5.246-.92L17.8,9.839a.519.519,0,0,0,0-.734L13.011,4.311a.524.524,0,0,0-.738,0ZM5.359,14.679a.6.6,0,0,1,0-.855l6.65-6.65a.6.6,0,0,1,.855.855l-6.65,6.65a.6.6,0,0,1-.855,0ZM3.8,18.311H5.873v1.567l-2.785.488L1.745,19.023l.488-2.785H3.8Z" transform="translate(-0.002 -0.005)" fill="#fff"/>
</svg>
