<svg id="Componente_6_1" data-name="Componente 6 – 1" xmlns="http://www.w3.org/2000/svg" width="21.765" height="20.839" viewBox="0 0 21.765 20.839">
  <g id="Grupo_70" data-name="Grupo 70" transform="translate(4.969)">
    <path id="Caminho_157" data-name="Caminho 157" d="M27.9.591a1.63,1.63,0,0,0-2.784.469L23.42,5.593,29.659,2.73" transform="translate(-23.42 0.001)" fill="#fff"/>
  </g>
  <g id="Grupo_71" data-name="Grupo 71" transform="translate(0 7.509)">
    <path id="Caminho_158" data-name="Caminho 158" d="M4.948,71.477,1.917,64.97.109,69.819A1.63,1.63,0,0,0,1.907,72l3.031-.509Z" transform="translate(-0.004 -58.69)" fill="#fff"/>
    <path id="Caminho_159" data-name="Caminho 159" d="M48.663,42.931,42.43,35.38l-7.81,3.585,2.209,4.813,1.269-1.21,2.245,4.24,7.332-1.233A1.629,1.629,0,0,0,48.663,42.931Z" transform="translate(-27.274 -35.38)" fill="#fff"/>
  </g>
</svg>
