<svg id="Componente_4_1" data-name="Componente 4 – 1" xmlns="http://www.w3.org/2000/svg" width="1168.082" height="618.434" viewBox="0 0 1168.082 618.434">
  <g id="Grupo_463" data-name="Grupo 463" transform="translate(-287.918 595.788)">
    <text id="GANHE_" data-name="GANHE " transform="translate(1075 -383)" fill="#eaa205" font-size="60" font-family="MyriadPro-Bold, Myriad Pro" font-weight="700"><tspan x="0" y="45">GANHE </tspan></text>
    <text id="_40_" data-name="40%" transform="translate(1075 -321)" fill="none" stroke="#1e71b8" stroke-width="2" font-size="150" font-family="MyriadPro-Bold, Myriad Pro" font-weight="700"><tspan x="0" y="113">40%</tspan></text>
    <text id="Até" transform="translate(1078 -314)" fill="#eaa205" font-size="25" font-family="MyriadPro-Bold, Myriad Pro" font-weight="700"><tspan x="0" y="0">ATÉ</tspan></text>
    <text id="EM_BÓNUS" data-name="EM
BÓNUS" transform="translate(1078 -203)" fill="#1e71b8" font-size="60" font-family="MyriadPro-Bold, Myriad Pro" font-weight="700"><tspan x="0" y="45">EM</tspan><tspan x="0" y="100">BÓNUS</tspan></text>
  </g>
  <g id="Polígono_5" data-name="Polígono 5" transform="translate(296.93 0) rotate(47)" fill="none">
    <path d="M211.828,37.682a25,25,0,0,1,43.343,0L445.454,368.536A25,25,0,0,1,423.782,406H43.218a25,25,0,0,1-21.672-37.464Z" stroke="none"/>
    <path d="M 233.4999542236328 26.145263671875 C 229.3837432861328 26.145263671875 225.3344573974609 27.185546875 221.7899627685547 29.15359497070312 C 219.9522857666016 30.1739501953125 218.2588500976562 31.43804931640625 216.7566833496094 32.91094970703125 C 215.1879577636719 34.44900512695312 213.8215637207031 36.22177124023438 212.6952972412109 38.1800537109375 L 22.41311645507812 369.0347900390625 C 21.29013061523438 370.9874877929688 20.44656372070312 373.0543212890625 19.90594482421875 375.1778259277344 C 19.38818359375 377.211669921875 19.1455078125 379.3059387207031 19.18472290039062 381.4024353027344 C 19.26040649414062 385.4466552734375 20.38711547851562 389.4630126953125 22.44317626953125 393.017333984375 C 24.49923706054688 396.5716552734375 27.41912841796875 399.55078125 30.88717651367188 401.6325988769531 C 32.68502807617188 402.7118225097656 34.62139892578125 403.5456237792969 36.64263916015625 404.1107788085938 C 38.75296020507812 404.7008361816406 40.96517944335938 405 43.21780395507812 405 L 423.7821655273438 405 C 426.0347900390625 405 428.2470092773438 404.7008361816406 430.3573608398438 404.1107788085938 C 432.3785705566406 403.5456237792969 434.3149719238281 402.7118225097656 436.11279296875 401.6325988769531 C 439.5808410644531 399.55078125 442.500732421875 396.5716552734375 444.5567932128906 393.017333984375 C 446.6128540039062 389.4630126953125 447.7395629882812 385.4466552734375 447.8152465820312 381.4024353027344 C 447.8544616699219 379.3059387207031 447.6117858886719 377.211669921875 447.0940246582031 375.1778259277344 C 446.5534057617188 373.0543212890625 445.7098388671875 370.9874877929688 444.5868530273438 369.0347900390625 L 254.3046264648438 38.1800537109375 C 253.1783447265625 36.22177124023438 251.8119049072266 34.44900512695312 250.2431793212891 32.91094970703125 C 248.7410125732422 31.43804931640625 247.0476226806641 30.1739501953125 245.2099609375 29.15359497070312 C 241.6654663085938 27.185546875 237.6161804199219 26.145263671875 233.4999542236328 26.145263671875 M 233.4999542236328 25.14529418945312 C 241.9324188232422 25.14529418945312 250.3648834228516 29.32403564453125 255.1714630126953 37.68148803710938 L 445.4536743164062 368.5362243652344 C 455.0390625 385.2028198242188 443.0086364746094 406 423.7821655273438 406 L 43.21780395507812 406 C 23.99136352539062 406 11.96090698242188 385.2028198242188 21.54629516601562 368.5362243652344 L 211.8284606933594 37.68148803710938 C 216.6350402832031 29.32403564453125 225.0675048828125 25.14529418945312 233.4999542236328 25.14529418945312 Z" stroke="none" fill="#045659"/>
  </g>
</svg>
