<?xml version="1.0" encoding="UTF-8"?> <svg xmlns="http://www.w3.org/2000/svg" xmlns:xlink="http://www.w3.org/1999/xlink" id="Grupo_472" data-name="Grupo 472" width="128.223" height="28.856" viewBox="0 0 128.223 28.856"><defs><linearGradient id="linear-gradient" y1="0.503" x2="6.179" y2="0.503" gradientUnits="objectBoundingBox"><stop offset="0" stop-color="#2a2740"></stop><stop offset="1" stop-color="#e09207"></stop></linearGradient><linearGradient id="linear-gradient-2" x1="-0.848" y1="0.5" x2="3.767" y2="0.5" xlink:href="#linear-gradient"></linearGradient><linearGradient id="linear-gradient-3" x1="-2.36" y1="0.491" x2="3.078" y2="0.491" xlink:href="#linear-gradient"></linearGradient><linearGradient id="linear-gradient-4" x1="-4.091" y1="0.503" x2="2.089" y2="0.503" xlink:href="#linear-gradient"></linearGradient><linearGradient id="linear-gradient-5" x1="-5.972" y1="0.499" x2="1" y2="0.499" xlink:href="#linear-gradient"></linearGradient><linearGradient id="linear-gradient-6" y1="0.5" x2="1" y2="0.5" gradientUnits="objectBoundingBox"><stop offset="0.305" stop-color="#2a2740"></stop><stop offset="1" stop-color="#e09207"></stop></linearGradient></defs><path id="Caminho_1441" data-name="Caminho 1441" d="M23.043,25.333a1.215,1.215,0,0,1-.551,1.06,13.418,13.418,0,0,1-2.969,1.528,12.578,12.578,0,0,1-2.969.762c-.34.055-.686.1-1.039.128s-.714.042-1.081.042A14.017,14.017,0,0,1,8.81,27.727a14.559,14.559,0,0,1-7.681-7.681A13.931,13.931,0,0,1,0,14.426a14.086,14.086,0,0,1,1.126-5.6,14.245,14.245,0,0,1,3.1-4.584,15.093,15.093,0,0,1,4.584-3.1A13.836,13.836,0,0,1,14.426,0a14.227,14.227,0,0,1,8.02,2.418,1.255,1.255,0,1,1-1.4,2.082A11.756,11.756,0,0,0,9.78,3.416,12.079,12.079,0,0,0,3.416,9.78a11.765,11.765,0,0,0,0,9.292A12.079,12.079,0,0,0,9.78,25.437a11.79,11.79,0,0,0,6.385.828,14.107,14.107,0,0,0,2.5-.637q.468-.213.956-.447a9.256,9.256,0,0,0,.956-.53V16.82a1.23,1.23,0,0,1,2.46,0v8.512Z" transform="translate(0 0)" fill="#2a2740"></path><path id="Caminho_1442" data-name="Caminho 1442" d="M94.26.87a11.167,11.167,0,0,1,3.558,2.4,11.538,11.538,0,0,1,2.415,3.565,10.82,10.82,0,0,1,.89,4.372,10.769,10.769,0,0,1-.762,4.033,11.567,11.567,0,0,1-2.075,3.4,11.27,11.27,0,0,1-3.111,2.46,10.791,10.791,0,0,1-3.877,1.23l5.474,4.2a1.233,1.233,0,0,1,.489.828,1.163,1.163,0,0,1-.277.911,1.2,1.2,0,0,1-.977.468,1.125,1.125,0,0,1-.762-.253L81.22,17.61V27.626a1.188,1.188,0,0,1-.36.87,1.174,1.174,0,0,1-.87.36,1.23,1.23,0,0,1-1.23-1.23V6.915a1.23,1.23,0,0,1,2.46,0v7.594l5.813,4.455a4.433,4.433,0,0,0,1.358.721,4.929,4.929,0,0,0,1.569.253,8.282,8.282,0,0,0,3.374-.7,9.009,9.009,0,0,0,2.779-1.888,8.756,8.756,0,0,0,1.867-2.779,8.724,8.724,0,0,0,0-6.749,8.718,8.718,0,0,0-1.867-2.779,9.05,9.05,0,0,0-2.779-1.888,8.27,8.27,0,0,0-3.374-.7H79.99a1.188,1.188,0,0,1-.87-.36,1.188,1.188,0,0,1-.36-.87,1.188,1.188,0,0,1,.36-.87A1.19,1.19,0,0,1,79.986,0H89.94A10.9,10.9,0,0,1,94.26.87Z" transform="translate(-51.473 0)" fill="#2a2740"></path><path id="Caminho_1443" data-name="Caminho 1443" d="M49.87,46.153h0a1.319,1.319,0,0,1,1.313-1.313h3.139a1.319,1.319,0,0,1,1.313,1.313h0a1.319,1.319,0,0,1-1.313,1.313H51.183A1.317,1.317,0,0,1,49.87,46.153Z" transform="translate(-32.592 -29.305)" fill="#2a2740"></path><g id="Grupo_471" data-name="Grupo 471" transform="translate(78.489 9.444)"><g id="Grupo_470" data-name="Grupo 470"><path id="Caminho_1444" data-name="Caminho 1444" d="M226.55,27.734a17.29,17.29,0,0,1,2.855-.194,4.481,4.481,0,0,1,2.855.748,2.689,2.689,0,0,1,1,2.162,2.912,2.912,0,0,1-.859,2.217,4.4,4.4,0,0,1-3.035.984,3.624,3.624,0,0,1-.721-.055V36.95H226.55Zm2.093,4.241a3.149,3.149,0,0,0,.707.055c1.122,0,1.815-.568,1.815-1.511,0-.859-.6-1.372-1.663-1.372a3.768,3.768,0,0,0-.859.069Z" transform="translate(-226.55 -27.443)" fill="url(#linear-gradient)"></path><path id="Caminho_1445" data-name="Caminho 1445" d="M257.52,32c0,3.077-1.843,4.92-4.587,4.92s-4.393-2.093-4.393-4.767c0-2.8,1.8-4.892,4.545-4.892C255.954,27.26,257.52,29.408,257.52,32Zm-6.745.111c0,1.843.859,3.132,2.273,3.132s2.245-1.358,2.245-3.174c0-1.691-.79-3.132-2.245-3.132S250.775,30.295,250.775,32.11Z" transform="translate(-240.921 -27.26)" fill="url(#linear-gradient-2)"></path><path id="Caminho_1446" data-name="Caminho 1446" d="M280.576,27.74V33.1c0,1.621.624,2.439,1.691,2.439,1.109,0,1.718-.776,1.718-2.439V27.74h2.106v5.238c0,2.882-1.455,4.254-3.894,4.254-2.356,0-3.728-1.317-3.728-4.282V27.74Z" transform="translate(-260.482 -27.574)" fill="url(#linear-gradient-3)"></path><path id="Caminho_1447" data-name="Caminho 1447" d="M305.75,27.734a17.289,17.289,0,0,1,2.855-.194,4.481,4.481,0,0,1,2.855.748,2.689,2.689,0,0,1,1,2.162,2.912,2.912,0,0,1-.859,2.217,4.4,4.4,0,0,1-3.035.984,3.624,3.624,0,0,1-.721-.055V36.95H305.75V27.734Zm2.093,4.241a3.149,3.149,0,0,0,.707.055c1.122,0,1.815-.568,1.815-1.511,0-.859-.6-1.372-1.663-1.372a3.768,3.768,0,0,0-.859.069Z" transform="translate(-278.311 -27.443)" fill="url(#linear-gradient-4)"></path><path id="Caminho_1448" data-name="Caminho 1448" d="M334.563,33.131h-3.437v2.217h3.839V37.08H329.02V27.74h5.751v1.732h-3.645v1.94h3.437Z" transform="translate(-293.519 -27.574)" fill="url(#linear-gradient-5)"></path></g></g><path id="Caminho_1449" data-name="Caminho 1449" d="M225.18,4.32H180.4a4.143,4.143,0,0,0-.45.024,3.2,3.2,0,0,0-2.567.928l-2.449,2.449h0a14.474,14.474,0,0,0-2.553-3.475,14.7,14.7,0,0,0-4.6-3.1A13.929,13.929,0,0,0,162.156,0a6.368,6.368,0,0,0-2.526.5,6.568,6.568,0,0,0-2.058,1.379,6.384,6.384,0,0,0-1.4,2.068,6.3,6.3,0,0,0-.509,2.5V22.024a1.246,1.246,0,0,0,.353.911,1.157,1.157,0,0,0,.856.36,1.217,1.217,0,0,0,.9-.36,1.246,1.246,0,0,0,.353-.911V6.451a4.04,4.04,0,0,1,1.171-2.82,4.069,4.069,0,0,1,1.254-.849,3.868,3.868,0,0,1,1.573-.319,11.619,11.619,0,0,1,4.681.96,12.023,12.023,0,0,1,6.288,6.143h0L170.5,12.154a3.237,3.237,0,0,0,0,4.566l2.63,2.63a11.98,11.98,0,0,1-4.66,5.367,11.513,11.513,0,0,1-3.818,1.511,6.462,6.462,0,0,1-1.569.17H156.89a1.2,1.2,0,0,0-.87.353,1.211,1.211,0,0,0-.36.9,1.162,1.162,0,0,0,.36.856,1.2,1.2,0,0,0,.87.353h6.195a7.946,7.946,0,0,0,1.486-.128c.454-.083.693-.128.721-.128a14.312,14.312,0,0,0,4.542-1.867,14.555,14.555,0,0,0,3.586-3.184,14.254,14.254,0,0,0,1.549-2.373l2.415,2.415a3.208,3.208,0,0,0,2.605.925c.142.014.274.017.409.017h44.779a4.785,4.785,0,0,0,4.778-4.778V9.1A4.777,4.777,0,0,0,225.18,4.32Zm2.879,15.438a2.883,2.883,0,0,1-2.879,2.879H180.4a3.146,3.146,0,0,1-.315-.017l-.232,0a1.338,1.338,0,0,1-1.126-.371l-6.877-6.877a1.334,1.334,0,0,1,0-1.885l6.877-6.877a1.319,1.319,0,0,1,1.109-.374l.114.014.114-.014a3.057,3.057,0,0,1,.336-.021H225.18A2.883,2.883,0,0,1,228.059,9.1Z" transform="translate(-101.731 0)" fill="url(#linear-gradient-6)"></path></svg> 