<?xml version="1.0" encoding="UTF-8"?> <svg xmlns="http://www.w3.org/2000/svg" xmlns:xlink="http://www.w3.org/1999/xlink" id="Grupo_475" data-name="Grupo 475" width="152.692" height="28.93" viewBox="0 0 152.692 28.93"><defs><linearGradient id="linear-gradient" y1="0.5" x2="9.207" y2="0.5" gradientUnits="objectBoundingBox"><stop offset="0" stop-color="#2a2740"></stop><stop offset="1" stop-color="#6e840f"></stop></linearGradient><linearGradient id="linear-gradient-2" x1="-0.94" y1="0.501" x2="7.055" y2="0.501" xlink:href="#linear-gradient"></linearGradient><linearGradient id="linear-gradient-3" x1="-2.719" y1="0.501" x2="7.924" y2="0.501" xlink:href="#linear-gradient"></linearGradient><linearGradient id="linear-gradient-4" x1="-3.285" y1="0.501" x2="5.574" y2="0.501" xlink:href="#linear-gradient"></linearGradient><linearGradient id="linear-gradient-5" x1="-5.022" y1="0.499" x2="4.812" y2="0.499" xlink:href="#linear-gradient"></linearGradient><linearGradient id="linear-gradient-6" x1="-4.987" y1="0.501" x2="3.008" y2="0.501" xlink:href="#linear-gradient"></linearGradient><linearGradient id="linear-gradient-7" x1="-7.003" y1="0.5" x2="2.204" y2="0.5" xlink:href="#linear-gradient"></linearGradient><linearGradient id="linear-gradient-8" x1="-7.924" y1="0.501" x2="1" y2="0.501" xlink:href="#linear-gradient"></linearGradient><linearGradient id="linear-gradient-9" y1="0.5" x2="1" y2="0.5" gradientUnits="objectBoundingBox"><stop offset="0.305" stop-color="#2a2740"></stop><stop offset="1" stop-color="#6e840f"></stop></linearGradient></defs><path id="Caminho_1450" data-name="Caminho 1450" d="M23.1,25.4a1.218,1.218,0,0,1-.552,1.063,13.452,13.452,0,0,1-2.977,1.532,12.61,12.61,0,0,1-2.977.764c-.34.056-.688.1-1.042.129s-.716.042-1.084.042A14.052,14.052,0,0,1,8.833,27.8a14.6,14.6,0,0,1-7.7-7.7A13.967,13.967,0,0,1,0,14.463,14.121,14.121,0,0,1,1.129,8.847a14.281,14.281,0,0,1,3.105-4.6,15.132,15.132,0,0,1,4.6-3.105A13.872,13.872,0,0,1,14.463,0,14.263,14.263,0,0,1,22.5,2.424,1.259,1.259,0,1,1,21.1,4.512,11.785,11.785,0,0,0,9.805,3.425,12.109,12.109,0,0,0,3.425,9.805a11.795,11.795,0,0,0,0,9.316A12.109,12.109,0,0,0,9.805,25.5a11.82,11.82,0,0,0,6.4.83,14.143,14.143,0,0,0,2.511-.639q.469-.214.959-.448a9.28,9.28,0,0,0,.959-.531v-7.85a1.233,1.233,0,0,1,2.466,0V25.4Z" transform="translate(0 0)" fill="#2a2740"></path><path id="Caminho_1451" data-name="Caminho 1451" d="M94.3.872a11.2,11.2,0,0,1,3.567,2.4,11.567,11.567,0,0,1,2.421,3.574,10.847,10.847,0,0,1,.893,4.383,10.8,10.8,0,0,1-.764,4.043,11.6,11.6,0,0,1-2.081,3.4,11.3,11.3,0,0,1-3.119,2.466,10.818,10.818,0,0,1-3.887,1.233l5.488,4.213a1.236,1.236,0,0,1,.49.83,1.166,1.166,0,0,1-.278.913,1.2,1.2,0,0,1-.979.469,1.128,1.128,0,0,1-.764-.254l-14.06-10.9V27.7a1.191,1.191,0,0,1-.361.872,1.177,1.177,0,0,1-.872.361A1.233,1.233,0,0,1,78.76,27.7V6.933a1.233,1.233,0,0,1,2.466,0v7.614l5.828,4.467a4.444,4.444,0,0,0,1.362.722,4.942,4.942,0,0,0,1.573.254,8.3,8.3,0,0,0,3.383-.7,9.032,9.032,0,0,0,2.786-1.893,8.778,8.778,0,0,0,1.872-2.786,8.746,8.746,0,0,0,0-6.766,8.74,8.74,0,0,0-1.872-2.786,9.073,9.073,0,0,0-2.786-1.893,8.291,8.291,0,0,0-3.383-.7h-10a1.191,1.191,0,0,1-.872-.361,1.191,1.191,0,0,1-.361-.872,1.191,1.191,0,0,1,.361-.872A1.193,1.193,0,0,1,79.99,0h9.979A10.929,10.929,0,0,1,94.3.872Z" transform="translate(-51.404 0)" fill="#2a2740"></path><path id="Caminho_1452" data-name="Caminho 1452" d="M49.87,46.156h0a1.322,1.322,0,0,1,1.316-1.316h3.147a1.322,1.322,0,0,1,1.316,1.316h0a1.322,1.322,0,0,1-1.316,1.316H51.186A1.32,1.32,0,0,1,49.87,46.156Z" transform="translate(-32.548 -29.265)" fill="#2a2740"></path><g id="Grupo_474" data-name="Grupo 474" transform="translate(78.258 9.496)"><g id="Grupo_473" data-name="Grupo 473"><path id="Caminho_1453" data-name="Caminho 1453" d="M232.6,36.593a6.215,6.215,0,0,1-2.39.4c-3.237,0-4.9-2.028-4.9-4.7a4.763,4.763,0,0,1,5.113-4.96,5.3,5.3,0,0,1,2.306.417l-.445,1.667a4.463,4.463,0,0,0-1.778-.347,2.813,2.813,0,0,0-2.973,3.1,2.793,2.793,0,0,0,2.987,3.057,5.043,5.043,0,0,0,1.778-.306Z" transform="translate(-225.31 -27.34)" fill="url(#linear-gradient)"></path><path id="Caminho_1454" data-name="Caminho 1454" d="M251.278,34.7l-.667,2.4H248.43l2.848-9.364h2.779l2.918,9.364h-2.292l-.722-2.4Zm2.376-1.584-.584-1.987c-.167-.556-.333-1.25-.472-1.806h-.028c-.139.556-.278,1.264-.431,1.806l-.556,1.987Z" transform="translate(-240.4 -27.601)" fill="url(#linear-gradient-2)"></path><path id="Caminho_1455" data-name="Caminho 1455" d="M275.981,34.662a5.351,5.351,0,0,0,2.348.584c.973,0,1.487-.4,1.487-1.014,0-.584-.445-.917-1.57-1.306-1.556-.556-2.584-1.417-2.584-2.779,0-1.6,1.348-2.806,3.543-2.806a5.477,5.477,0,0,1,2.39.472l-.472,1.695a4.38,4.38,0,0,0-1.945-.445c-.917,0-1.362.431-1.362.9,0,.6.514.861,1.737,1.32,1.653.611,2.417,1.473,2.417,2.793,0,1.57-1.195,2.9-3.765,2.9a6.108,6.108,0,0,1-2.654-.584Z" transform="translate(-258.1 -27.34)" fill="url(#linear-gradient-3)"></path><path id="Caminho_1456" data-name="Caminho 1456" d="M300.342,27.74v3.6h3.487v-3.6h2.112V37.1h-2.112V33.186h-3.487V37.1H298.23V27.74Z" transform="translate(-272.902 -27.601)" fill="url(#linear-gradient-4)"></path><path id="Caminho_1457" data-name="Caminho 1457" d="M325.75,27.735a18.472,18.472,0,0,1,2.737-.195,5.258,5.258,0,0,1,2.779.528,2.032,2.032,0,0,1,1.111,1.848,2.125,2.125,0,0,1-1.542,1.987v.028a2.328,2.328,0,0,1,1.862,2.292,2.5,2.5,0,0,1-.973,2,5.911,5.911,0,0,1-3.682.847,16.384,16.384,0,0,1-2.292-.139Zm2.1,3.584h.695c1.125,0,1.709-.458,1.709-1.153s-.542-1.084-1.5-1.084a5.506,5.506,0,0,0-.9.056Zm0,4.154a6.681,6.681,0,0,0,.82.028c.959,0,1.806-.375,1.806-1.362,0-.931-.848-1.306-1.9-1.306h-.722Z" transform="translate(-290.864 -27.471)" fill="url(#linear-gradient-5)"></path><path id="Caminho_1458" data-name="Caminho 1458" d="M350.838,34.7l-.667,2.4H347.99l2.848-9.364h2.779l2.918,9.364h-2.292l-.722-2.4Zm2.372-1.584-.584-1.987c-.167-.556-.333-1.25-.472-1.806h-.028c-.139.556-.278,1.264-.431,1.806l-.556,1.987Z" transform="translate(-305.379 -27.601)" fill="url(#linear-gradient-6)"></path><path id="Caminho_1459" data-name="Caminho 1459" d="M382.194,36.593a6.215,6.215,0,0,1-2.39.4c-3.237,0-4.9-2.028-4.9-4.7a4.763,4.763,0,0,1,5.113-4.96,5.3,5.3,0,0,1,2.306.417l-.445,1.667a4.463,4.463,0,0,0-1.778-.347,2.813,2.813,0,0,0-2.973,3.1,2.793,2.793,0,0,0,2.987,3.057,5.043,5.043,0,0,0,1.778-.306Z" transform="translate(-322.942 -27.34)" fill="url(#linear-gradient-7)"></path><path id="Caminho_1460" data-name="Caminho 1460" d="M399.95,27.74h2.1v4.14h.028c.208-.361.431-.695.653-1.028l2.112-3.112h2.612l-3.1,3.987,3.251,5.377h-2.459l-2.306-4.043-.792.986V37.1h-2.1Z" transform="translate(-339.291 -27.601)" fill="url(#linear-gradient-8)"></path></g></g><path id="Caminho_1461" data-name="Caminho 1461" d="M249.5,4.331H180.463a4.153,4.153,0,0,0-.452.024,3.207,3.207,0,0,0-2.574.931l-2.456,2.456h0a14.51,14.51,0,0,0-2.56-3.484,14.733,14.733,0,0,0-4.616-3.105A13.964,13.964,0,0,0,162.173,0a6.384,6.384,0,0,0-2.532.5,6.585,6.585,0,0,0-2.063,1.382,6.4,6.4,0,0,0-1.4,2.074,6.317,6.317,0,0,0-.511,2.511V22.08a1.249,1.249,0,0,0,.354.913,1.16,1.16,0,0,0,.858.361,1.22,1.22,0,0,0,.9-.361,1.249,1.249,0,0,0,.354-.913V6.467A4.051,4.051,0,0,1,159.3,3.64a4.08,4.08,0,0,1,1.257-.851,3.878,3.878,0,0,1,1.577-.32,11.649,11.649,0,0,1,4.692.962,12.054,12.054,0,0,1,6.3,6.158h0l-2.595,2.595a3.245,3.245,0,0,0,0,4.578l2.636,2.636a12.01,12.01,0,0,1-4.672,5.38,11.543,11.543,0,0,1-3.828,1.514,6.478,6.478,0,0,1-1.573.17h-6.21a1.2,1.2,0,0,0-.872.354,1.215,1.215,0,0,0-.361.9,1.165,1.165,0,0,0,.361.858,1.2,1.2,0,0,0,.872.354h6.21a7.966,7.966,0,0,0,1.49-.129c.455-.083.695-.129.722-.129a14.348,14.348,0,0,0,4.554-1.872,14.592,14.592,0,0,0,3.595-3.192,14.292,14.292,0,0,0,1.553-2.379l2.421,2.421a3.216,3.216,0,0,0,2.612.927c.142.014.274.017.41.017H249.5a4.8,4.8,0,0,0,4.79-4.79V9.121A4.789,4.789,0,0,0,249.5,4.331Zm2.886,15.477a2.891,2.891,0,0,1-2.886,2.886H180.463a3.153,3.153,0,0,1-.316-.017l-.233,0a1.341,1.341,0,0,1-1.129-.372l-6.895-6.895a1.337,1.337,0,0,1,0-1.89l6.895-6.895a1.323,1.323,0,0,1,1.111-.375l.115.014.115-.014a3.064,3.064,0,0,1,.337-.021H249.5a2.891,2.891,0,0,1,2.886,2.886Z" transform="translate(-101.594 0)" fill="url(#linear-gradient-9)"></path></svg> 