<?xml version="1.0" encoding="UTF-8"?> <svg xmlns="http://www.w3.org/2000/svg" xmlns:xlink="http://www.w3.org/1999/xlink" id="Grupo_478" data-name="Grupo 478" width="141.052" height="29.29" viewBox="0 0 141.052 29.29"><defs><linearGradient id="linear-gradient" y1="0.5" x2="6.402" y2="0.5" gradientUnits="objectBoundingBox"><stop offset="0" stop-color="#2a2740"></stop><stop offset="1" stop-color="#02c6c6"></stop></linearGradient><linearGradient id="linear-gradient-2" x1="-4.566" y1="0.5" x2="21.591" y2="0.5" xlink:href="#linear-gradient"></linearGradient><linearGradient id="linear-gradient-3" x1="-1.512" y1="0.5" x2="4.953" y2="0.5" xlink:href="#linear-gradient"></linearGradient><linearGradient id="linear-gradient-4" x1="-2.698" y1="0.5" x2="3.995" y2="0.5" xlink:href="#linear-gradient"></linearGradient><linearGradient id="linear-gradient-5" x1="-5.4" y1="0.5" x2="3.867" y2="0.5" xlink:href="#linear-gradient"></linearGradient><linearGradient id="linear-gradient-6" x1="-5.108" y1="0.5" x2="2.018" y2="0.5" xlink:href="#linear-gradient"></linearGradient><linearGradient id="linear-gradient-7" x1="-7.606" y1="0.5" x2="1" y2="0.5" xlink:href="#linear-gradient"></linearGradient><linearGradient id="linear-gradient-8" y1="0.5" x2="1" y2="0.5" gradientUnits="objectBoundingBox"><stop offset="0.305" stop-color="#2a2740"></stop><stop offset="1" stop-color="#02c6c6"></stop></linearGradient></defs><path id="Caminho_1462" data-name="Caminho 1462" d="M23.389,25.714a1.234,1.234,0,0,1-.559,1.076,13.62,13.62,0,0,1-3.014,1.551,12.767,12.767,0,0,1-3.014.774c-.345.056-.7.1-1.055.13s-.724.042-1.1.042a14.227,14.227,0,0,1-5.707-1.143,14.778,14.778,0,0,1-7.8-7.8A14.141,14.141,0,0,1,0,14.643,14.3,14.3,0,0,1,1.143,8.957,14.459,14.459,0,0,1,4.287,4.3,15.32,15.32,0,0,1,8.939,1.16,14.044,14.044,0,0,1,14.643,0a14.441,14.441,0,0,1,8.141,2.455A1.274,1.274,0,1,1,21.36,4.568a11.932,11.932,0,0,0-11.433-1.1,12.26,12.26,0,0,0-6.46,6.46,11.942,11.942,0,0,0,0,9.432,12.26,12.26,0,0,0,6.46,6.46,11.968,11.968,0,0,0,6.481.84,14.319,14.319,0,0,0,2.543-.647q.475-.216.971-.454a9.4,9.4,0,0,0,.971-.538V17.073a1.248,1.248,0,0,1,2.5,0v8.64Z" transform="translate(0 0)" fill="#2a2740"></path><path id="Caminho_1463" data-name="Caminho 1463" d="M94.493.883A11.335,11.335,0,0,1,98.1,3.316a11.711,11.711,0,0,1,2.451,3.619,10.982,10.982,0,0,1,.9,4.438,10.931,10.931,0,0,1-.774,4.093,11.741,11.741,0,0,1-2.106,3.446,11.439,11.439,0,0,1-3.158,2.5,10.953,10.953,0,0,1-3.935,1.248l5.556,4.266a1.252,1.252,0,0,1,.5.84,1.181,1.181,0,0,1-.281.925,1.219,1.219,0,0,1-.992.475,1.142,1.142,0,0,1-.774-.257L81.257,17.875V28.042a1.205,1.205,0,0,1-.366.883,1.192,1.192,0,0,1-.883.366,1.249,1.249,0,0,1-1.248-1.248V7.019a1.248,1.248,0,0,1,2.5,0v7.708l5.9,4.522a4.5,4.5,0,0,0,1.379.731,5,5,0,0,0,1.593.257,8.406,8.406,0,0,0,3.425-.71,9.144,9.144,0,0,0,2.82-1.917,8.888,8.888,0,0,0,1.9-2.82,8.855,8.855,0,0,0,0-6.85,8.849,8.849,0,0,0-1.9-2.82A9.186,9.186,0,0,0,93.554,3.2a8.394,8.394,0,0,0-3.425-.71H80.008a1.205,1.205,0,0,1-.883-.366,1.205,1.205,0,0,1-.366-.883,1.205,1.205,0,0,1,.366-.883A1.208,1.208,0,0,1,80,0h10.1A11.065,11.065,0,0,1,94.493.883Z" transform="translate(-51.063 0)" fill="#2a2740"></path><path id="Caminho_1464" data-name="Caminho 1464" d="M49.87,46.173h0A1.339,1.339,0,0,1,51.2,44.84h3.186a1.339,1.339,0,0,1,1.333,1.333h0a1.339,1.339,0,0,1-1.333,1.333H51.2A1.337,1.337,0,0,1,49.87,46.173Z" transform="translate(-32.333 -29.071)" fill="#2a2740"></path><g id="Grupo_477" data-name="Grupo 477" transform="translate(78.867 9.614)"><g id="Grupo_476" data-name="Grupo 476"><path id="Caminho_1465" data-name="Caminho 1465" d="M227.308,37.221,224.27,27.74h2.349l1.153,4.009c.324,1.139.619,2.208.844,3.39h.042c.239-1.139.535-2.265.858-3.348l1.21-4.051h2.279l-3.193,9.481Z" transform="translate(-224.27 -27.599)" fill="url(#linear-gradient)"></path><path id="Caminho_1466" data-name="Caminho 1466" d="M254.168,27.74v9.481H252.03V27.74Z" transform="translate(-242.268 -27.599)" fill="url(#linear-gradient-2)"></path><path id="Caminho_1467" data-name="Caminho 1467" d="M264.354,34.787l-.675,2.434H261.47l2.884-9.481h2.813l2.954,9.481H267.8l-.731-2.434Zm2.405-1.6-.591-2.012c-.169-.563-.338-1.266-.478-1.829h-.028c-.141.563-.281,1.28-.436,1.829l-.563,2.012Z" transform="translate(-248.388 -27.599)" fill="url(#linear-gradient-3)"></path><path id="Caminho_1468" data-name="Caminho 1468" d="M296.736,36.6a10.61,10.61,0,0,1-3.165.535,5.341,5.341,0,0,1-3.854-1.266,4.752,4.752,0,0,1-1.336-3.46c.014-3.151,2.307-4.951,5.416-4.951a6.848,6.848,0,0,1,2.63.45l-.45,1.73a4.969,4.969,0,0,0-2.194-.408,2.873,2.873,0,0,0-3.151,3.067,2.852,2.852,0,0,0,3,3.109,3.286,3.286,0,0,0,1.041-.127v-2H293.2V31.61h3.531Z" transform="translate(-265.835 -27.418)" fill="url(#linear-gradient-4)"></path><path id="Caminho_1469" data-name="Caminho 1469" d="M322.567,33.212h-3.488v2.251h3.9v1.758H316.94V27.74h5.838V29.5h-3.7v1.969h3.488Z" transform="translate(-284.351 -27.599)" fill="url(#linear-gradient-5)"></path><path id="Caminho_1470" data-name="Caminho 1470" d="M338.27,37.221V27.74h2.5l1.969,3.474a29.894,29.894,0,0,1,1.547,3.249h.028a39.113,39.113,0,0,1-.169-3.967V27.74h1.969v9.481h-2.251l-2.026-3.657a32.146,32.146,0,0,1-1.646-3.348h-.056c.07,1.266.1,2.6.1,4.15v2.855Z" transform="translate(-298.18 -27.599)" fill="url(#linear-gradient-6)"></path><path id="Caminho_1471" data-name="Caminho 1471" d="M365.266,34.753a5.418,5.418,0,0,0,2.377.591c.985,0,1.505-.408,1.505-1.027,0-.591-.45-.928-1.59-1.322-1.575-.563-2.616-1.435-2.616-2.813,0-1.618,1.364-2.841,3.587-2.841a5.546,5.546,0,0,1,2.419.478l-.478,1.716a4.434,4.434,0,0,0-1.969-.45c-.928,0-1.379.436-1.379.914,0,.6.52.872,1.758,1.336,1.674.619,2.448,1.491,2.448,2.827,0,1.59-1.21,2.94-3.812,2.94a6.184,6.184,0,0,1-2.687-.591Z" transform="translate(-315.4 -27.34)" fill="url(#linear-gradient-7)"></path></g></g><path id="Caminho_1472" data-name="Caminho 1472" d="M237.126,4.385H180.772a4.205,4.205,0,0,0-.457.025,3.247,3.247,0,0,0-2.606.942l-2.486,2.486h0a14.69,14.69,0,0,0-2.592-3.527,14.917,14.917,0,0,0-4.674-3.144A14.138,14.138,0,0,0,162.254,0a6.464,6.464,0,0,0-2.564.506,6.667,6.667,0,0,0-2.089,1.4,6.48,6.48,0,0,0-1.421,2.1,6.4,6.4,0,0,0-.517,2.543V22.355a1.265,1.265,0,0,0,.359.925,1.174,1.174,0,0,0,.869.366,1.235,1.235,0,0,0,.911-.366,1.265,1.265,0,0,0,.359-.925V6.548a4.1,4.1,0,0,1,1.189-2.863,4.13,4.13,0,0,1,1.273-.862,3.926,3.926,0,0,1,1.6-.324,11.794,11.794,0,0,1,4.751.974,12.2,12.2,0,0,1,6.383,6.235h0l-2.627,2.627a3.286,3.286,0,0,0,0,4.635l2.669,2.669a12.16,12.16,0,0,1-4.73,5.447,11.687,11.687,0,0,1-3.875,1.533,6.559,6.559,0,0,1-1.593.172h-6.288a1.213,1.213,0,0,0-.883.359,1.23,1.23,0,0,0-.366.911,1.18,1.18,0,0,0,.366.869,1.213,1.213,0,0,0,.883.359H163.2a8.065,8.065,0,0,0,1.509-.13c.461-.084.7-.13.731-.13a14.527,14.527,0,0,0,4.61-1.9,14.773,14.773,0,0,0,3.64-3.232,14.469,14.469,0,0,0,1.572-2.409l2.451,2.451a3.256,3.256,0,0,0,2.645.939c.144.014.278.018.415.018h56.354a4.857,4.857,0,0,0,4.849-4.849V9.235A4.849,4.849,0,0,0,237.126,4.385Zm2.922,15.67a2.927,2.927,0,0,1-2.922,2.922H180.772a3.193,3.193,0,0,1-.32-.018l-.236,0a1.358,1.358,0,0,1-1.143-.376l-6.981-6.981a1.354,1.354,0,0,1,0-1.913l6.981-6.981a1.339,1.339,0,0,1,1.125-.38l.116.014.116-.014a3.1,3.1,0,0,1,.341-.021h56.354a2.927,2.927,0,0,1,2.922,2.922Z" transform="translate(-100.92 0)" fill="url(#linear-gradient-8)"></path></svg> 