<?xml version="1.0" encoding="UTF-8"?> <svg xmlns="http://www.w3.org/2000/svg" id="Grupo_443" data-name="Grupo 443" width="288" height="64.777" viewBox="0 0 288 64.777"><path id="Caminho_1374" data-name="Caminho 1374" d="M51.727,56.867a2.728,2.728,0,0,1-1.237,2.38,30.122,30.122,0,0,1-6.665,3.43,28.236,28.236,0,0,1-6.665,1.711c-.762.124-1.54.226-2.333.288s-1.6.093-2.427.093a31.465,31.465,0,0,1-12.623-2.528A32.683,32.683,0,0,1,2.535,45,31.274,31.274,0,0,1,0,32.385,31.62,31.62,0,0,1,2.528,19.809,31.977,31.977,0,0,1,9.48,9.519,33.882,33.882,0,0,1,19.77,2.566,31.06,31.06,0,0,1,32.385,0a31.937,31.937,0,0,1,18,5.429,2.818,2.818,0,1,1-3.15,4.674A26.389,26.389,0,0,0,21.955,7.668,27.114,27.114,0,0,0,7.668,21.955a26.41,26.41,0,0,0,0,20.859A27.114,27.114,0,0,0,21.955,57.1a26.467,26.467,0,0,0,14.334,1.859,31.668,31.668,0,0,0,5.623-1.431q1.05-.478,2.147-1a20.78,20.78,0,0,0,2.147-1.19V37.759a2.761,2.761,0,0,1,5.522,0V56.867Z" transform="translate(0 0)" fill="#fff"></path><path id="Caminho_1375" data-name="Caminho 1375" d="M113.555,1.952a25.068,25.068,0,0,1,7.987,5.382,25.9,25.9,0,0,1,5.421,8,24.288,24.288,0,0,1,2,9.815,24.174,24.174,0,0,1-1.711,9.053,25.966,25.966,0,0,1-4.659,7.622,25.3,25.3,0,0,1-6.984,5.522,24.224,24.224,0,0,1-8.7,2.761l12.288,9.434a2.768,2.768,0,0,1,1.1,1.859,2.611,2.611,0,0,1-.622,2.045,2.7,2.7,0,0,1-2.193,1.05,2.525,2.525,0,0,1-1.711-.568l-31.482-24.4V62.016a2.666,2.666,0,0,1-.809,1.952,2.636,2.636,0,0,1-1.952.809,2.762,2.762,0,0,1-2.761-2.761V15.523a2.761,2.761,0,0,1,5.522,0V32.571l13.05,10a9.95,9.95,0,0,0,3.049,1.618,11.066,11.066,0,0,0,3.523.568,18.591,18.591,0,0,0,7.575-1.571,20.223,20.223,0,0,0,6.237-4.239,19.656,19.656,0,0,0,4.192-6.237,19.584,19.584,0,0,0,0-15.15,19.57,19.57,0,0,0-4.192-6.237,20.315,20.315,0,0,0-6.237-4.239A18.565,18.565,0,0,0,103.9,5.514H81.521a2.666,2.666,0,0,1-1.952-.809,2.666,2.666,0,0,1-.809-1.952A2.666,2.666,0,0,1,79.569.8,2.672,2.672,0,0,1,81.513,0h22.344A24.471,24.471,0,0,1,113.555,1.952Z" transform="translate(-17.506 0)" fill="#fff"></path><path id="Caminho_1376" data-name="Caminho 1376" d="M49.87,47.788h0a2.961,2.961,0,0,1,2.948-2.948h7.046a2.961,2.961,0,0,1,2.948,2.948h0a2.961,2.961,0,0,1-2.948,2.948H52.818A2.956,2.956,0,0,1,49.87,47.788Z" transform="translate(-11.085 -9.967)" fill="#fff"></path><g id="Grupo_442" data-name="Grupo 442" transform="translate(175.222 21.201)"><g id="Grupo_441" data-name="Grupo 441"><path id="Caminho_1377" data-name="Caminho 1377" d="M243.779,47.681a23.465,23.465,0,0,1-7,1.182c-3.826,0-6.6-.964-8.524-2.8A10.51,10.51,0,0,1,225.3,38.41c.031-6.968,5.1-10.95,11.977-10.95a15.144,15.144,0,0,1,5.817,1l-1,3.826a10.99,10.99,0,0,0-4.853-.9c-3.951,0-6.968,2.209-6.968,6.782,0,4.355,2.738,6.875,6.626,6.875a7.266,7.266,0,0,0,2.3-.28V40.339H235.97v-3.7h7.808V47.681Z" transform="translate(-225.3 -27.304)" fill="#fff"></path><path id="Caminho_1378" data-name="Caminho 1378" d="M253.83,27.976a41.348,41.348,0,0,1,6.315-.436c3.111,0,5.289.467,6.782,1.649a5.318,5.318,0,0,1,1.96,4.417,5.554,5.554,0,0,1-3.7,5.133v.093c1.462.591,2.271,1.96,2.8,3.889.653,2.4,1.275,5.133,1.68,5.942h-4.853a28.092,28.092,0,0,1-1.431-4.884c-.591-2.644-1.493-3.329-3.453-3.36h-1.4v8.244h-4.7V27.976Zm4.7,9.022h1.867c2.364,0,3.764-1.182,3.764-3.018,0-1.9-1.307-2.893-3.484-2.893a9.43,9.43,0,0,0-2.147.156V37Z" transform="translate(-231.641 -27.322)" fill="#fff"></path><path id="Caminho_1379" data-name="Caminho 1379" d="M296.3,37.9c0,6.906-4.138,11.044-10.3,11.044-6.191,0-9.862-4.7-9.862-10.7,0-6.284,4.044-10.981,10.2-10.981C292.783,27.26,296.3,32.082,296.3,37.9Zm-15.142.249c0,4.138,1.929,7.031,5.1,7.031,3.2,0,5.04-3.049,5.04-7.124,0-3.8-1.773-7.031-5.04-7.031C283.023,31.024,281.156,34.073,281.156,38.148Z" transform="translate(-236.6 -27.26)" fill="#fff"></path><path id="Caminho_1380" data-name="Caminho 1380" d="M310.8,27.74V39.779c0,3.64,1.4,5.475,3.8,5.475,2.489,0,3.858-1.742,3.858-5.475V27.74h4.729V39.5c0,6.471-3.266,9.55-8.742,9.55-5.289,0-8.368-2.955-8.368-9.613V27.74Z" transform="translate(-243.253 -27.367)" fill="#fff"></path><path id="Caminho_1381" data-name="Caminho 1381" d="M333.35,27.976a38.812,38.812,0,0,1,6.408-.436c2.924,0,5.009.56,6.408,1.68a6.037,6.037,0,0,1,2.24,4.853,6.536,6.536,0,0,1-1.929,4.977,9.87,9.87,0,0,1-6.813,2.209,8.137,8.137,0,0,1-1.618-.124v7.528h-4.7V27.976Zm4.7,9.519a7.07,7.07,0,0,0,1.587.124c2.52,0,4.075-1.275,4.075-3.391,0-1.929-1.338-3.08-3.733-3.08a8.459,8.459,0,0,0-1.929.156Z" transform="translate(-249.317 -27.322)" fill="#fff"></path></g></g><path id="Caminho_1382" data-name="Caminho 1382" d="M311.874,9.7H211.2a9.3,9.3,0,0,0-1.011.054,7.182,7.182,0,0,0-5.763,2.084l-5.5,5.5h0a32.489,32.489,0,0,0-5.732-7.8,32.99,32.99,0,0,0-10.336-6.953A31.267,31.267,0,0,0,170.242,0a14.3,14.3,0,0,0-5.67,1.12,14.744,14.744,0,0,0-4.62,3.1,14.33,14.33,0,0,0-3.142,4.643,14.144,14.144,0,0,0-1.143,5.623V49.44a2.8,2.8,0,0,0,.793,2.045,2.6,2.6,0,0,0,1.921.809,2.732,2.732,0,0,0,2.014-.809,2.8,2.8,0,0,0,.793-2.045V14.481a9.069,9.069,0,0,1,2.629-6.331,9.135,9.135,0,0,1,2.815-1.905,8.682,8.682,0,0,1,3.531-.716,26.083,26.083,0,0,1,10.507,2.154,26.99,26.99,0,0,1,14.116,13.789h0l-5.81,5.81a7.266,7.266,0,0,0,0,10.25l5.9,5.9a26.893,26.893,0,0,1-10.46,12.047,25.846,25.846,0,0,1-8.571,3.391,14.506,14.506,0,0,1-3.523.381H158.421a2.682,2.682,0,0,0-1.952.793,2.719,2.719,0,0,0-.809,2.014,2.609,2.609,0,0,0,.809,1.921,2.682,2.682,0,0,0,1.952.793h13.906a17.836,17.836,0,0,0,3.336-.288c1.019-.187,1.555-.288,1.618-.288a32.127,32.127,0,0,0,10.2-4.192,32.673,32.673,0,0,0,8.049-7.147A32,32,0,0,0,199,47.535l5.421,5.421a7.2,7.2,0,0,0,5.849,2.077c.319.031.614.039.918.039H311.874A10.741,10.741,0,0,0,322.6,44.346V20.423A10.726,10.726,0,0,0,311.874,9.7Zm6.471,34.655a6.472,6.472,0,0,1-6.463,6.463H211.2a7.061,7.061,0,0,1-.708-.039l-.521.008a3,3,0,0,1-2.528-.832L192,34.516a3,3,0,0,1,0-4.231l15.438-15.438a2.961,2.961,0,0,1,2.489-.84l.257.031.257-.031a6.861,6.861,0,0,1,.754-.047H311.882a6.472,6.472,0,0,1,6.463,6.463Z" transform="translate(-34.599 0)" fill="#fff"></path></svg> 