<?xml version="1.0" encoding="UTF-8"?> <svg xmlns="http://www.w3.org/2000/svg" xmlns:xlink="http://www.w3.org/1999/xlink" width="97.93" height="127.767" viewBox="0 0 97.93 127.767"><defs><linearGradient id="linear-gradient" x1="0.262" y1="0.525" x2="1.17" y2="0.525" gradientUnits="objectBoundingBox"><stop offset="0" stop-color="#f39200"></stop><stop offset="0.969" stop-color="#fcea10"></stop></linearGradient></defs><g id="Grupo_467" data-name="Grupo 467" transform="translate(0 -0.001)"><text id="GOLD" transform="translate(19.327 121.768)" fill="#eaa205" font-size="22" font-family="MyriadPro-Bold, Myriad Pro" font-weight="700"><tspan x="0" y="0">GOLD</tspan></text><path id="Caminho_1426" data-name="Caminho 1426" d="M36.185,6.17,1.249,74.779a11.281,11.281,0,0,0,10.5,16.4L87,88.163A11.289,11.289,0,0,0,96.17,70.974L55.857,5.377A11.285,11.285,0,0,0,36.185,6.17Z" transform="translate(0 0)" fill="#cdcccc"></path><path id="Caminho_1427" data-name="Caminho 1427" d="M29.413,8.276,4.893,74.035A11.284,11.284,0,0,0,17.337,89.109L86.548,77.473a11.288,11.288,0,0,0,6.832-18.32L48.7,5.03A11.3,11.3,0,0,0,29.413,8.276Z" transform="translate(1.953 0.435)" fill="url(#linear-gradient)"></path><path id="Caminho_1428" data-name="Caminho 1428" d="M67.937,28.015,8.29,55.371,21.527,19.788,50.263,6.61Z" transform="translate(3.889 3.1)" fill="#e8e8e8"></path><path id="Caminho_1429" data-name="Caminho 1429" d="M8.29,43.412,22.217,73.339l27.546-4.628L32.972,32.1Z" transform="translate(3.889 15.059)" fill="#a36e14"></path><path id="Caminho_1430" data-name="Caminho 1430" d="M54.5,62.531h0L17.55,68.437,44.2,43.08Z" transform="translate(8.233 20.21)" fill="#e8e8e8"></path></g></svg> 