<?xml version="1.0" encoding="UTF-8"?> <svg xmlns="http://www.w3.org/2000/svg" xmlns:xlink="http://www.w3.org/1999/xlink" width="66.654" height="83.489" viewBox="0 0 66.654 83.489"><defs><linearGradient id="linear-gradient" x1="0.023" y1="-0.906" x2="0.931" y2="-0.906" gradientUnits="objectBoundingBox"><stop offset="0" stop-color="#f39200"></stop><stop offset="0.969" stop-color="#fcea10"></stop></linearGradient></defs><g id="Grupo_511" data-name="Grupo 511" transform="translate(-2844.354 -2841.85)"><g id="Grupo_506" data-name="Grupo 506" transform="translate(2617 2839.999)"><path id="Caminho_1528" data-name="Caminho 1528" d="M250.13,84.67a10.706,10.706,0,0,1-3.43.6,5.812,5.812,0,0,1-4.21-1.43A5.387,5.387,0,0,1,241,79.9c.02-3.4,2.41-5.56,5.96-5.56a7.031,7.031,0,0,1,2.84.51l-.43,1.57a5.528,5.528,0,0,0-2.43-.46,3.579,3.579,0,0,0-3.89,3.84,3.542,3.542,0,0,0,3.72,3.88,4.161,4.161,0,0,0,1.48-.21V80.8h-1.89V79.26h3.78v5.41Z" fill="#eaa205"></path><path id="Caminho_1529" data-name="Caminho 1529" d="M261.71,79.7c0,3.59-2.18,5.64-5.11,5.64-3.03,0-4.94-2.32-4.94-5.45,0-3.3,2.08-5.62,5.1-5.62C259.86,74.27,261.71,76.64,261.71,79.7Zm-7.99.14c0,2.19,1.1,3.92,2.97,3.92,1.89,0,2.95-1.76,2.95-4,0-2.02-1-3.92-2.95-3.92S253.72,77.64,253.72,79.84Z" fill="#eaa205"></path><path id="Caminho_1530" data-name="Caminho 1530" d="M263.46,74.46h1.95v9.07h4.4v1.64h-6.35Z" fill="#eaa205"></path><path id="Caminho_1531" data-name="Caminho 1531" d="M271.37,74.6a21.512,21.512,0,0,1,3.11-.22,6.437,6.437,0,0,1,4.35,1.24,4.766,4.766,0,0,1,1.68,3.94,5.515,5.515,0,0,1-1.67,4.26A7.124,7.124,0,0,1,274,85.28a21.742,21.742,0,0,1-2.64-.14V74.6Zm1.95,9.09a6.918,6.918,0,0,0,1.08.05c2.54.02,4.05-1.4,4.05-4.11.02-2.35-1.35-3.72-3.8-3.72a6.54,6.54,0,0,0-1.33.11Z" fill="#eaa205"></path></g><path id="Caminho_1532" data-name="Caminho 1532" d="M251.98,6.05,228.2,52.75a7.682,7.682,0,0,0,7.15,11.16l51.22-2.05a7.684,7.684,0,0,0,6.24-11.7L265.37,5.51A7.681,7.681,0,0,0,251.98,6.05Z" transform="translate(2617 2839.999)" fill="#cdcccc"></path><path id="Caminho_1533" data-name="Caminho 1533" d="M248.71,7.78l-16.7,44.76a7.681,7.681,0,0,0,8.47,10.26l47.11-7.92a7.684,7.684,0,0,0,4.65-12.47L261.83,5.57A7.681,7.681,0,0,0,248.71,7.78Z" transform="translate(2617 2839.999)" fill="url(#linear-gradient)"></path><path id="Caminho_1534" data-name="Caminho 1534" d="M276.24,23.03l-40.6,18.63,9.01-24.22,19.56-8.98Z" transform="translate(2617 2839.999)" fill="#e8e8e8"></path><path id="Caminho_1535" data-name="Caminho 1535" d="M235.64,41.66l9.48,20.36,18.75-3.15L252.44,33.95Z" transform="translate(2617 2839.999)" fill="#a36e14"></path><path id="Caminho_1536" data-name="Caminho 1536" d="M270.05,58.18h0L244.9,62.2l18.14-17.27Z" transform="translate(2617 2839.999)" fill="#e8e8e8"></path></g></svg> 