<?xml version="1.0" encoding="UTF-8"?> <svg xmlns="http://www.w3.org/2000/svg" xmlns:xlink="http://www.w3.org/1999/xlink" width="66.654" height="83.489" viewBox="0 0 66.654 83.489"><defs><linearGradient id="linear-gradient" x1="-0.29" y1="-2.718" x2="0.618" y2="-2.718" gradientUnits="objectBoundingBox"><stop offset="0" stop-color="#341f51"></stop><stop offset="0.969" stop-color="#852077"></stop></linearGradient></defs><g id="Grupo_514" data-name="Grupo 514" transform="translate(-3157.714 -2841.85)"><g id="Grupo_510" data-name="Grupo 510" transform="translate(2617 2839.999)"><path id="Caminho_1557" data-name="Caminho 1557" d="M554.92,74.62a17.114,17.114,0,0,1,2.95-.24,4.94,4.94,0,0,1,3.3.86,2.71,2.71,0,0,1,.92,2.16,2.821,2.821,0,0,1-1.95,2.67v.05a2.642,2.642,0,0,1,1.49,2.06,27.48,27.48,0,0,0,.84,2.99h-2a13.214,13.214,0,0,1-.71-2.53c-.32-1.4-.81-1.84-1.92-1.87h-.98v4.4h-1.94Zm1.93,4.72h1.16c1.32,0,2.13-.7,2.13-1.76,0-1.16-.81-1.72-2.08-1.72a5.387,5.387,0,0,0-1.21.1v3.38Z" fill="#49235d"></path><path id="Caminho_1558" data-name="Caminho 1558" d="M573.53,79.7c0,3.59-2.18,5.64-5.12,5.64-3.03,0-4.94-2.32-4.94-5.45,0-3.3,2.08-5.62,5.1-5.62C571.68,74.27,573.53,76.64,573.53,79.7Zm-7.99.14c0,2.19,1.1,3.92,2.97,3.92,1.89,0,2.95-1.76,2.95-4,0-2.02-1-3.92-2.95-3.92S565.54,77.64,565.54,79.84Z" fill="#49235d"></path><path id="Caminho_1559" data-name="Caminho 1559" d="M577.19,85.17V80.7l-3.38-6.24h2.24l1.27,2.75c.37.79.63,1.4.94,2.13h.03c.25-.68.56-1.35.92-2.13l1.29-2.75h2.21l-3.56,6.19v4.51h-1.96Z" fill="#49235d"></path><path id="Caminho_1560" data-name="Caminho 1560" d="M584.73,82.13l-.92,3.03h-2.02l3.43-10.71h2.49l3.48,10.71h-2.11l-.97-3.03Zm3.07-1.48-.84-2.64c-.21-.65-.38-1.38-.54-2h-.03c-.16.62-.33,1.37-.51,2l-.83,2.64Z" fill="#49235d"></path><path id="Caminho_1561" data-name="Caminho 1561" d="M592.77,74.46h1.95v9.07h4.4v1.64h-6.35V74.46Z" fill="#49235d"></path></g><path id="Caminho_1562" data-name="Caminho 1562" d="M565.34,6.05l-23.78,46.7a7.682,7.682,0,0,0,7.15,11.16l51.22-2.05a7.684,7.684,0,0,0,6.24-11.7L578.73,5.51A7.681,7.681,0,0,0,565.34,6.05Z" transform="translate(2617 2839.999)" fill="#cdcccc"></path><path id="Caminho_1563" data-name="Caminho 1563" d="M562.07,7.78l-16.7,44.76a7.681,7.681,0,0,0,8.47,10.26l47.11-7.92a7.684,7.684,0,0,0,4.65-12.47L575.19,5.57A7.681,7.681,0,0,0,562.07,7.78Z" transform="translate(2617 2839.999)" fill="url(#linear-gradient)"></path><path id="Caminho_1564" data-name="Caminho 1564" d="M589.6,23.03,549.01,41.66l9.01-24.22,19.55-8.98Z" transform="translate(2617 2839.999)" fill="#e8e8e8"></path><path id="Caminho_1565" data-name="Caminho 1565" d="M549.01,41.66l9.48,20.36,18.74-3.15L565.8,33.95Z" transform="translate(2617 2839.999)" fill="#211b42"></path><path id="Caminho_1566" data-name="Caminho 1566" d="M583.41,58.18h0L558.26,62.2,576.4,44.93Z" transform="translate(2617 2839.999)" fill="#e8e8e8"></path></g></svg> 