<?xml version="1.0" encoding="UTF-8"?> <svg xmlns="http://www.w3.org/2000/svg" xmlns:xlink="http://www.w3.org/1999/xlink" width="66.654" height="83.489" viewBox="0 0 66.654 83.489"><defs><linearGradient id="linear-gradient" x1="-0.187" y1="-2.119" x2="0.722" y2="-2.119" gradientUnits="objectBoundingBox"><stop offset="0"></stop><stop offset="0.969" stop-color="#333"></stop></linearGradient></defs><g id="Grupo_513" data-name="Grupo 513" transform="translate(-3054.154 -2841.85)"><g id="Grupo_509" data-name="Grupo 509" transform="translate(2617 2839.999)"><path id="Caminho_1547" data-name="Caminho 1547" d="M449.36,74.62a15.885,15.885,0,0,1,2.86-.24,5.166,5.166,0,0,1,3.05.68,2.268,2.268,0,0,1,1.11,2.02,2.474,2.474,0,0,1-1.78,2.3v.05a2.7,2.7,0,0,1,2.16,2.64,2.845,2.845,0,0,1-1.02,2.22c-.76.65-2.02.98-3.99.98a20.07,20.07,0,0,1-2.4-.14V74.62Zm1.93,4.22h1c1.37,0,2.11-.64,2.11-1.54,0-1.02-.76-1.48-2-1.48a5.087,5.087,0,0,0-1.11.08Zm0,4.91a5.892,5.892,0,0,0,1.03.05c1.25,0,2.38-.46,2.38-1.78,0-1.25-1.1-1.76-2.45-1.76h-.97v3.49Z" fill="#010202"></path><path id="Caminho_1548" data-name="Caminho 1548" d="M458.58,74.46h1.95v9.07h4.4v1.64h-6.35Z" fill="#010202"></path><path id="Caminho_1549" data-name="Caminho 1549" d="M468.69,82.13l-.92,3.03h-2.02l3.43-10.71h2.49l3.48,10.71h-2.11l-.97-3.03Zm3.07-1.48-.84-2.64c-.21-.65-.38-1.38-.54-2h-.03c-.16.62-.33,1.37-.51,2l-.83,2.64Z" fill="#010202"></path><path id="Caminho_1550" data-name="Caminho 1550" d="M484.07,84.86a7.123,7.123,0,0,1-2.78.48,5.052,5.052,0,0,1-5.46-5.4,5.389,5.389,0,0,1,5.73-5.65,6,6,0,0,1,2.59.48l-.41,1.56a5.308,5.308,0,0,0-2.1-.41c-2.18,0-3.75,1.37-3.75,3.94,0,2.37,1.37,3.86,3.73,3.86a6.009,6.009,0,0,0,2.13-.38Z" fill="#010202"></path><path id="Caminho_1551" data-name="Caminho 1551" d="M485.81,74.46h1.94v4.92h.05c.25-.41.52-.79.78-1.16l2.81-3.76h2.4l-3.68,4.56,3.92,6.15h-2.29l-3.02-4.91-.97,1.14v3.76h-1.94Z" fill="#010202"></path></g><path id="Caminho_1552" data-name="Caminho 1552" d="M461.78,6.05,438,52.75a7.682,7.682,0,0,0,7.15,11.16l51.22-2.05a7.684,7.684,0,0,0,6.24-11.7L475.17,5.51A7.681,7.681,0,0,0,461.78,6.05Z" transform="translate(2617 2839.999)" fill="#cdcccc"></path><path id="Caminho_1553" data-name="Caminho 1553" d="M458.51,7.78l-16.7,44.76a7.681,7.681,0,0,0,8.47,10.26l47.11-7.92a7.684,7.684,0,0,0,4.65-12.47L471.63,5.57A7.681,7.681,0,0,0,458.51,7.78Z" transform="translate(2617 2839.999)" fill="url(#linear-gradient)"></path><path id="Caminho_1554" data-name="Caminho 1554" d="M486.04,23.03,445.45,41.66l9.01-24.22,19.55-8.98Z" transform="translate(2617 2839.999)" fill="#e8e8e8"></path><path id="Caminho_1555" data-name="Caminho 1555" d="M445.45,41.66l9.48,20.36,18.74-3.15L462.24,33.95Z" transform="translate(2617 2839.999)" fill="#010202"></path><path id="Caminho_1556" data-name="Caminho 1556" d="M479.85,58.18h0L454.7,62.2l18.14-17.27Z" transform="translate(2617 2839.999)" fill="#e8e8e8"></path></g></svg> 