<?xml version="1.0" encoding="UTF-8"?> <svg xmlns="http://www.w3.org/2000/svg" xmlns:xlink="http://www.w3.org/1999/xlink" width="234" height="68.516" viewBox="0 0 234 68.516"><defs><linearGradient id="linear-gradient" x1="-0.454" y1="0.432" x2="0.455" y2="0.432" gradientUnits="objectBoundingBox"><stop offset="0" stop-color="#01534e"></stop><stop offset="1" stop-color="#1d71b8"></stop></linearGradient></defs><g id="Grupo_461" data-name="Grupo 461" transform="translate(0 -1.591)"><path id="Caminho_1419" data-name="Caminho 1419" d="M27.19,6.226.938,57.78A8.477,8.477,0,0,0,8.831,70.1l56.543-2.263a8.483,8.483,0,0,0,6.889-12.916L41.971,5.63A8.479,8.479,0,0,0,27.19,6.226Z" transform="translate(0 0)" fill="#cdcccc"></path><path id="Caminho_1420" data-name="Caminho 1420" d="M23.136,8.04,4.712,57.452a8.479,8.479,0,0,0,9.35,11.326l52.006-8.743A8.482,8.482,0,0,0,71.2,46.269L37.631,5.6A8.489,8.489,0,0,0,23.136,8.04Z" transform="translate(0.433 0.096)" fill="url(#linear-gradient)"></path><text id="CLUBE" transform="translate(82.32 43.445)" fill="#1e71b8" font-size="52" font-family="MyriadPro-Bold, Myriad Pro" font-weight="700"><tspan x="0" y="0">CLUBE</tspan></text><path id="Caminho_1421" data-name="Caminho 1421" d="M53.11,24.284,8.29,44.839,18.236,18.1,39.829,8.2Z" transform="translate(0.862 0.687)" fill="#eaa205"></path><path id="Caminho_1422" data-name="Caminho 1422" d="M8.29,42.19,18.755,64.677l20.7-3.477L26.836,33.69Z" transform="translate(0.862 3.336)" fill="#012d29"></path><path id="Caminho_1423" data-name="Caminho 1423" d="M45.314,59.286h0L17.55,63.724,37.575,44.67Z" transform="translate(1.824 4.477)" fill="#eaa205"></path><path id="Caminho_1424" data-name="Caminho 1424" d="M217.736,58.906l-55.141,3.146-6.1-21.516,59.888-3.466Z" transform="translate(16.264 3.687)" fill="#eaa205"></path><text id="GRD" transform="translate(184.055 61.719) rotate(-3.646)" fill="#fff" font-size="21" font-family="MyriadPro-Bold, Myriad Pro" font-weight="700"><tspan x="0" y="0">GRD</tspan></text></g></svg> 