<?xml version="1.0" encoding="UTF-8"?> <svg xmlns="http://www.w3.org/2000/svg" width="370" height="83" viewBox="0 0 370 83"><defs><style> .cls-1 { fill-rule: evenodd; } </style></defs><path id="Forma_1" data-name="Forma 1" class="cls-1" d="M64.859,75.923a38.77,38.77,0,0,1-8.567,4.395,36.7,36.7,0,0,1-8.566,2.2q-1.469.246-3,.367T41.607,83a40.606,40.606,0,0,1-16.215-3.235A41.959,41.959,0,0,1,3.242,57.674,40.333,40.333,0,0,1,0,41.5,40.475,40.475,0,0,1,3.242,25.386,41.008,41.008,0,0,1,12.176,12.2,43.463,43.463,0,0,1,25.392,3.292,39.966,39.966,0,0,1,41.607,0a41.079,41.079,0,0,1,23.13,6.958,3.63,3.63,0,0,1,1.53,2.258,3.559,3.559,0,0,1-.551,2.746,3.623,3.623,0,0,1-2.264,1.526,3.564,3.564,0,0,1-2.754-.549A34.041,34.041,0,0,0,28.207,9.823,34.78,34.78,0,0,0,9.85,28.133a33.822,33.822,0,0,0,0,26.734,34.785,34.785,0,0,0,18.356,18.31,33.181,33.181,0,0,0,13.4,2.746,33.923,33.923,0,0,0,5.017-.366,40.66,40.66,0,0,0,7.221-1.831q1.345-.609,2.753-1.282a25.979,25.979,0,0,0,2.753-1.525V52.24h-5.74a3.778,3.778,0,1,1,0-7.555h9.051a3.773,3.773,0,0,1,2.746,1.2h0a3.412,3.412,0,0,1,1.04,2.5V72.871A3.508,3.508,0,0,1,64.859,75.923ZM123.39,2.5a32.307,32.307,0,0,1,10.26,6.9,33.109,33.109,0,0,1,6.962,10.253,31.013,31.013,0,0,1,2.567,12.573,30.946,30.946,0,0,1-2.2,11.6A33.2,33.2,0,0,1,135,53.584a32.574,32.574,0,0,1-8.978,7.081,31.253,31.253,0,0,1-11.176,3.54l15.786,12.084a3.584,3.584,0,0,1,1.408,2.381,3.372,3.372,0,0,1-.8,2.625,3.477,3.477,0,0,1-2.814,1.342,3.266,3.266,0,0,1-2.2-.732L85.784,50.654V79.463a3.549,3.549,0,0,1-7.1,0V19.893a3.549,3.549,0,0,1,7.1,0v21.85l16.765,12.817a12.84,12.84,0,0,0,3.916,2.076,14.263,14.263,0,0,0,4.529.732,23.947,23.947,0,0,0,9.728-2.014,26.058,26.058,0,0,0,8.016-5.433,25.157,25.157,0,0,0,5.385-8,25.028,25.028,0,0,0,0-19.409,25.174,25.174,0,0,0-5.385-8,26.083,26.083,0,0,0-8.016-5.432,23.935,23.935,0,0,0-9.728-2.015H82.235a3.418,3.418,0,0,1-2.509-1.037,3.4,3.4,0,0,1-1.04-2.5,3.41,3.41,0,0,1,1.038-2.5A3.417,3.417,0,0,1,82.227,0h28.7A31.425,31.425,0,0,1,123.39,2.5ZM248.853,53.272a30.193,30.193,0,0,1-8.991,1.515c-4.915,0-8.472-1.236-10.949-3.587a13.45,13.45,0,0,1-3.8-9.806c0.04-8.928,6.553-14.03,15.384-14.03a19.509,19.509,0,0,1,7.473,1.275l-1.279,4.9a14.135,14.135,0,0,0-6.234-1.156c-5.074,0-8.951,2.83-8.951,8.689,0,5.58,3.516,8.808,8.512,8.808a9.355,9.355,0,0,0,2.957-.358v-5.66h-4.156V39.123h10.03V53.272ZM253.612,28a53.346,53.346,0,0,1,8.112-.558c4,0,6.793.6,8.711,2.112a6.809,6.809,0,0,1,2.517,5.661,7.118,7.118,0,0,1-4.754,6.576v0.12c1.878,0.757,2.916,2.511,3.6,4.982,0.839,3.069,1.638,6.576,2.158,7.613h-6.234a35.876,35.876,0,0,1-1.838-6.258c-0.76-3.388-1.918-4.265-4.435-4.3h-1.8V54.508h-6.034V28Zm6.034,11.56h2.4c3.036,0,4.834-1.515,4.834-3.867,0-2.431-1.678-3.707-4.474-3.707a12.123,12.123,0,0,0-2.758.2v7.374ZM301.807,40.8c0,8.849-5.315,14.149-13.226,14.149-7.953,0-12.668-6.018-12.668-13.711,0-8.052,5.195-14.071,13.107-14.071C297.291,27.165,301.807,33.343,301.807,40.8Zm-19.46.319c0,5.3,2.477,9.008,6.553,9.008,4.115,0,6.474-3.906,6.474-9.127,0-4.863-2.279-9.009-6.474-9.009C284.744,31.988,282.347,35.894,282.347,41.116Zm29.534-13.472V43.068c0,4.664,1.8,7.015,4.875,7.015,3.2,0,4.955-2.232,4.955-7.015V27.644h6.074V42.71c0,8.291-4.2,12.236-11.229,12.236-6.793,0-10.749-3.786-10.749-12.316V27.644h6.074ZM333.063,28a50.076,50.076,0,0,1,8.232-.558c3.756,0,6.434.717,8.232,2.152a7.728,7.728,0,0,1,2.876,6.218,8.363,8.363,0,0,1-2.477,6.377c-2.077,1.913-5.155,2.83-8.751,2.83a10.467,10.467,0,0,1-2.078-.16v9.646h-6.034V28ZM339.1,40.2a9.1,9.1,0,0,0,2.038.16c3.237,0,5.234-1.634,5.234-4.345,0-2.471-1.718-3.947-4.794-3.947a10.881,10.881,0,0,0-2.478.2V40.2Zm17.124-27.779H226.874c-0.414,0-.84.022-1.295,0.067a9.242,9.242,0,0,0-7.4,2.672L211.119,22.2h0a41.592,41.592,0,0,0-7.365-10,42.329,42.329,0,0,0-13.278-8.911A40.542,40.542,0,0,0,174.261,0a18.316,18.316,0,0,0-7.281,1.44A19.119,19.119,0,0,0,161.044,5.4a18.5,18.5,0,0,0-4.038,5.945,18.06,18.06,0,0,0-1.468,7.2v44.8a3.581,3.581,0,0,0,1.022,2.625,3.335,3.335,0,0,0,2.467,1.038,3.478,3.478,0,0,0,2.585-1.038,3.586,3.586,0,0,0,1.023-2.625v-44.8a11.145,11.145,0,0,1,.92-4.455,11.586,11.586,0,0,1,2.455-3.662,11.8,11.8,0,0,1,3.62-2.441,11.165,11.165,0,0,1,4.539-.916,33.675,33.675,0,0,1,13.5,2.756A34.616,34.616,0,0,1,205.805,27.5h0l-7.459,7.44a9.293,9.293,0,0,0,0,13.139l7.58,7.56A34.47,34.47,0,0,1,192.5,71.084a33.264,33.264,0,0,1-11.015,4.349,18.681,18.681,0,0,1-4.528.49H159.086a3.517,3.517,0,0,0-3.548,3.6,3.315,3.315,0,0,0,1.039,2.461A3.451,3.451,0,0,0,159.086,83h17.867a23.329,23.329,0,0,0,4.284-.366q1.956-.366,2.08-0.366a41.161,41.161,0,0,0,13.1-5.371,42.051,42.051,0,0,0,10.34-9.156,41.108,41.108,0,0,0,4.467-6.822l6.961,6.944a9.252,9.252,0,0,0,7.518,2.661c0.406,0.035.793,0.052,1.176,0.052H356.221A13.778,13.778,0,0,0,370,56.834V26.165A13.778,13.778,0,0,0,356.221,12.421Zm8.305,44.414a8.3,8.3,0,0,1-8.305,8.284H226.874a8.5,8.5,0,0,1-.908-0.052l-0.666.01A3.832,3.832,0,0,1,222.051,64L202.217,44.221a3.828,3.828,0,0,1,0-5.417l19.834-19.782a3.807,3.807,0,0,1,3.2-1.078l0.33,0.04,0.33-.039a8.165,8.165,0,0,1,.967-0.063H356.221a8.3,8.3,0,0,1,8.305,8.284V56.834Z"></path></svg> 