<?xml version="1.0" encoding="UTF-8"?> <svg xmlns="http://www.w3.org/2000/svg" xmlns:xlink="http://www.w3.org/1999/xlink" width="66.696" height="83.499" viewBox="0 0 66.696 83.499"><defs><linearGradient id="linear-gradient" x1="0.126" y1="-0.246" x2="1.035" y2="-0.246" gradientUnits="objectBoundingBox"><stop offset="0" stop-color="#00755a"></stop><stop offset="0.945" stop-color="#0082b0"></stop></linearGradient></defs><g id="Grupo_505" data-name="Grupo 505" transform="translate(-113.674 -0.001)"><g id="Grupo_504" data-name="Grupo 504"><path id="Caminho_1516" data-name="Caminho 1516" d="M114.77,72.75a16.911,16.911,0,0,1,2.99-.22,4.834,4.834,0,0,1,3.15.87,3.012,3.012,0,0,1,1.05,2.37,3.268,3.268,0,0,1-.9,2.41,4.737,4.737,0,0,1-3.38,1.16,4.432,4.432,0,0,1-.95-.08v4.05h-1.94V72.75Zm1.94,4.97a3.212,3.212,0,0,0,.95.1c1.46,0,2.35-.73,2.35-1.97,0-1.19-.83-1.81-2.18-1.81a5.2,5.2,0,0,0-1.13.1v3.58Z" fill="#00968b"></path><path id="Caminho_1517" data-name="Caminho 1517" d="M123.73,72.77a17.114,17.114,0,0,1,2.95-.24,4.94,4.94,0,0,1,3.3.86,2.71,2.71,0,0,1,.92,2.16,2.821,2.821,0,0,1-1.95,2.67v.05a2.642,2.642,0,0,1,1.49,2.06,30.085,30.085,0,0,0,.84,2.99h-2a13.21,13.21,0,0,1-.71-2.53c-.32-1.4-.81-1.84-1.92-1.87h-.98v4.4h-1.94V72.77Zm1.94,4.71h1.16c1.32,0,2.13-.7,2.13-1.76,0-1.16-.81-1.72-2.08-1.72a5.387,5.387,0,0,0-1.21.1v3.38Z" fill="#00968b"></path><path id="Caminho_1518" data-name="Caminho 1518" d="M138.83,78.56H134.8v3.15h4.51v1.6h-6.46V72.61h6.23v1.6h-4.27v2.76h4.03v1.59Z" fill="#00968b"></path><path id="Caminho_1519" data-name="Caminho 1519" d="M150.14,78.94c-.06-1.38-.14-3.05-.13-4.5h-.05c-.35,1.3-.79,2.75-1.27,4.1l-1.57,4.64h-1.49l-1.43-4.57c-.41-1.37-.79-2.83-1.08-4.16h-.03c-.05,1.4-.11,3.1-.19,4.56l-.24,4.3h-1.83l.71-10.71h2.57l1.4,4.3c.38,1.25.71,2.53.99,3.72h.05c.29-1.16.65-2.48,1.06-3.73l1.48-4.29h2.54l.62,10.71h-1.91Z" fill="#00968b"></path><path id="Caminho_1520" data-name="Caminho 1520" d="M156.26,72.61V83.32h-1.95V72.61Z" fill="#00968b"></path><path id="Caminho_1521" data-name="Caminho 1521" d="M160.52,72.61v6.24c0,2.1.87,3.07,2.19,3.07,1.41,0,2.25-.97,2.25-3.07V72.61h1.95v6.12c0,3.3-1.7,4.77-4.27,4.77-2.48,0-4.08-1.38-4.08-4.75V72.62h1.96Z" fill="#00968b"></path><path id="Caminho_1522" data-name="Caminho 1522" d="M178.27,78.94c-.06-1.38-.14-3.05-.13-4.5h-.05c-.35,1.3-.79,2.75-1.27,4.1l-1.57,4.64h-1.49l-1.43-4.57c-.41-1.37-.79-2.83-1.08-4.16h-.03c-.05,1.4-.11,3.1-.19,4.56l-.24,4.3h-1.83l.71-10.71h2.57l1.4,4.3c.38,1.25.71,2.53.98,3.72h.05c.29-1.16.65-2.48,1.06-3.73l1.48-4.29h2.54l.62,10.71h-1.91Z" fill="#00968b"></path></g><path id="Caminho_1523" data-name="Caminho 1523" d="M138.3,4.2,114.52,50.9a7.682,7.682,0,0,0,7.15,11.16l51.22-2.05a7.684,7.684,0,0,0,6.24-11.7L151.69,3.66A7.681,7.681,0,0,0,138.3,4.2Z" fill="#cdcccc"></path><path id="Caminho_1524" data-name="Caminho 1524" d="M135.03,5.93l-16.7,44.76a7.681,7.681,0,0,0,8.47,10.26l47.11-7.92a7.684,7.684,0,0,0,4.65-12.47L148.15,3.72A7.682,7.682,0,0,0,135.03,5.93Z" fill="url(#linear-gradient)"></path><path id="Caminho_1525" data-name="Caminho 1525" d="M162.56,21.18,121.97,39.8l9.01-24.22,19.56-8.97Z" fill="#e8e8e8"></path><path id="Caminho_1526" data-name="Caminho 1526" d="M121.97,39.8l9.48,20.37,18.75-3.15L138.76,32.1Z" fill="#424242"></path><path id="Caminho_1527" data-name="Caminho 1527" d="M156.37,56.32h0l-25.14,4.02,18.13-17.26Z" fill="#e8e8e8"></path></g></svg> 