<?xml version="1.0" encoding="UTF-8"?> <svg xmlns="http://www.w3.org/2000/svg" xmlns:xlink="http://www.w3.org/1999/xlink" width="66.658" height="83.489" viewBox="0 0 66.658 83.489"><defs><linearGradient id="linear-gradient" x1="0.25" y1="0.409" x2="1.158" y2="0.409" gradientUnits="objectBoundingBox"><stop offset="0" stop-color="#a3195b"></stop><stop offset="0.969" stop-color="#d60b52"></stop></linearGradient></defs><g id="Grupo_508" data-name="Grupo 508" transform="translate(0 -1.851)"><g id="Grupo_507" data-name="Grupo 507"><path id="Caminho_1537" data-name="Caminho 1537" d="M14.17,83.04a5.316,5.316,0,0,0,2.59.68c1.24,0,1.94-.59,1.94-1.46,0-.81-.54-1.29-1.89-1.78-1.78-.64-2.91-1.57-2.91-3.11,0-1.76,1.46-3.08,3.8-3.08a5.55,5.55,0,0,1,2.56.54L19.8,76.4a4.611,4.611,0,0,0-2.14-.51c-1.24,0-1.76.65-1.76,1.29,0,.83.62,1.21,2.05,1.76,1.86.7,2.75,1.64,2.75,3.18,0,1.73-1.3,3.22-4.05,3.22a6.268,6.268,0,0,1-2.91-.68Z" fill="#a4195b"></path><path id="Caminho_1538" data-name="Caminho 1538" d="M24.57,76.1H21.52V74.46h8.09V76.1H26.53v9.07H24.58V76.1Z" fill="#a4195b"></path><path id="Caminho_1539" data-name="Caminho 1539" d="M31.92,82.13,31,85.17H28.98l3.43-10.71H34.9l3.48,10.71H36.27l-.97-3.03H31.92Zm3.07-1.48-.84-2.64c-.21-.65-.38-1.38-.54-2h-.03c-.16.62-.33,1.37-.51,2l-.83,2.64Z" fill="#a4195b"></path><path id="Caminho_1540" data-name="Caminho 1540" d="M39.96,74.62a17.114,17.114,0,0,1,2.95-.24,4.94,4.94,0,0,1,3.3.86,2.71,2.71,0,0,1,.92,2.16,2.821,2.821,0,0,1-1.95,2.67v.05a2.642,2.642,0,0,1,1.49,2.06,30.081,30.081,0,0,0,.84,2.99h-2a13.21,13.21,0,0,1-.71-2.53c-.32-1.4-.81-1.84-1.92-1.87H41.9v4.4H39.96V74.62Zm1.93,4.72h1.16c1.32,0,2.13-.7,2.13-1.76,0-1.16-.81-1.72-2.08-1.72a5.387,5.387,0,0,0-1.21.1Z" fill="#a4195b"></path><path id="Caminho_1541" data-name="Caminho 1541" d="M51.2,76.1H48.15V74.46h8.09V76.1H53.16v9.07H51.2Z" fill="#a4195b"></path></g><path id="Caminho_1542" data-name="Caminho 1542" d="M24.63,6.05.85,52.75A7.679,7.679,0,0,0,8,63.91l51.22-2.05a7.684,7.684,0,0,0,6.24-11.7L38.02,5.51A7.681,7.681,0,0,0,24.63,6.05Z" fill="#cdcccc"></path><path id="Caminho_1543" data-name="Caminho 1543" d="M21.35,7.78,4.66,52.54A7.681,7.681,0,0,0,13.13,62.8l47.11-7.92a7.684,7.684,0,0,0,4.65-12.47L34.48,5.57A7.69,7.69,0,0,0,21.35,7.78Z" fill="url(#linear-gradient)"></path><path id="Caminho_1544" data-name="Caminho 1544" d="M48.89,23.03,8.29,41.66,17.3,17.44,36.86,8.46Z" fill="#e8e8e8"></path><path id="Caminho_1545" data-name="Caminho 1545" d="M8.29,41.66l9.48,20.36,18.75-3.15L25.09,33.95Z" fill="#550c31"></path><path id="Caminho_1546" data-name="Caminho 1546" d="M42.7,58.18h0L17.55,62.2,35.69,44.93Z" fill="#e8e8e8"></path></g></svg> 