<?xml version="1.0" encoding="UTF-8"?> <svg xmlns="http://www.w3.org/2000/svg" xmlns:xlink="http://www.w3.org/1999/xlink" width="129.363" height="162.028" viewBox="0 0 129.363 162.028"><defs><linearGradient id="linear-gradient" x1="-2.74" y1="-5.493" x2="-1.831" y2="-5.493" gradientUnits="objectBoundingBox"><stop offset="0" stop-color="#f39200"></stop><stop offset="0.969" stop-color="#fcea10"></stop></linearGradient></defs><g id="Grupo_520" data-name="Grupo 520" transform="translate(0 -0.001)"><g id="Grupo_519" data-name="Grupo 519" transform="translate(26.491 140.545)"><path id="Caminho_1569" data-name="Caminho 1569" d="M31.369,92.538A20.777,20.777,0,0,1,24.712,93.7c-3.513,0-6.191-.893-8.17-2.775A10.454,10.454,0,0,1,13.65,83.28c.039-6.6,4.677-10.79,11.567-10.79a13.646,13.646,0,0,1,5.512.99l-.835,3.047a10.728,10.728,0,0,0-4.716-.893c-4.444,0-7.549,2.62-7.549,7.452,0,4.716,2.892,7.53,7.219,7.53a8.075,8.075,0,0,0,2.872-.408v-5.2H24.033V82.019h7.336Z" transform="translate(-13.65 -72.354)" fill="#eaa205"></path><path id="Caminho_1570" data-name="Caminho 1570" d="M43.8,82.958c0,6.967-4.231,10.946-9.917,10.946-5.88,0-9.587-4.5-9.587-10.577,0-6.4,4.037-10.907,9.9-10.907C40.233,72.42,43.8,77,43.8,82.958Zm-15.487.272c0,4.25,2.135,7.608,5.764,7.608,3.668,0,5.725-3.416,5.725-7.763,0-3.92-1.941-7.608-5.725-7.608C30.316,75.467,28.317,78.941,28.317,83.23Z" transform="translate(-3.631 -72.42)" fill="#eaa205"></path><path id="Caminho_1571" data-name="Caminho 1571" d="M36.11,72.61h3.784v17.6h8.539V93.4H36.11V72.61Z" transform="translate(7.478 -72.241)" fill="#eaa205"></path><path id="Caminho_1572" data-name="Caminho 1572" d="M44.029,72.957a41.748,41.748,0,0,1,6.036-.427c3.881,0,6.54.8,8.442,2.406,2.038,1.63,3.26,4.134,3.26,7.646,0,3.726-1.261,6.482-3.241,8.267-2.057,1.882-5.356,2.833-9.393,2.833a42.2,42.2,0,0,1-5.123-.272V72.957ZM47.814,90.6a13.426,13.426,0,0,0,2.1.1c4.929.039,7.86-2.717,7.86-7.976.039-4.561-2.62-7.219-7.375-7.219a12.692,12.692,0,0,0-2.581.213Z" transform="translate(14.91 -72.317)" fill="#eaa205"></path></g><path id="Caminho_1573" data-name="Caminho 1573" d="M47.8,8.15,1.65,98.781A14.9,14.9,0,0,0,15.526,120.44l99.4-3.978a14.912,14.912,0,0,0,12.11-22.706L73.786,7.1A14.907,14.907,0,0,0,47.8,8.15Z" transform="translate(0 0)" fill="#cdcccc"></path><path id="Caminho_1574" data-name="Caminho 1574" d="M37.517,10.635,5.127,97.5a14.906,14.906,0,0,0,16.438,19.912l91.427-15.37a14.912,14.912,0,0,0,9.024-24.2L63,6.346A14.924,14.924,0,0,0,37.517,10.635Z" transform="translate(3.917 0.872)" fill="url(#linear-gradient)"></path><path id="Caminho_1575" data-name="Caminho 1575" d="M87.083,34.886,8.29,71.022l17.486-47L63.736,6.61Z" transform="translate(7.798 6.217)" fill="#e8e8e8"></path><path id="Caminho_1576" data-name="Caminho 1576" d="M8.29,47.043l18.4,39.532,36.388-6.113L40.894,32.1Z" transform="translate(7.798 30.196)" fill="#a36e14"></path><path id="Caminho_1577" data-name="Caminho 1577" d="M66.359,68.775h0l-48.809,7.8,35.2-33.5Z" transform="translate(16.509 40.525)" fill="#e8e8e8"></path></g></svg> 