<?xml version="1.0" encoding="UTF-8"?> <svg xmlns="http://www.w3.org/2000/svg" xmlns:xlink="http://www.w3.org/1999/xlink" id="Grupo_802" data-name="Grupo 802" width="122.453" height="28.282" viewBox="0 0 122.453 28.282"><defs><linearGradient id="linear-gradient" y1="0.499" x2="6.114" y2="0.499" gradientUnits="objectBoundingBox"><stop offset="0" stop-color="#2a2740"></stop><stop offset="1" stop-color="#ce9506"></stop></linearGradient><linearGradient id="linear-gradient-2" x1="-0.994" y1="0.499" x2="4.459" y2="0.499" xlink:href="#linear-gradient"></linearGradient><linearGradient id="linear-gradient-3" x1="-1.626" y1="0.5" x2="2.733" y2="0.5" xlink:href="#linear-gradient"></linearGradient><linearGradient id="linear-gradient-4" x1="-3.54" y1="0.503" x2="2.01" y2="0.503" xlink:href="#linear-gradient"></linearGradient><linearGradient id="linear-gradient-5" x1="-5.585" y1="0.499" x2="1" y2="0.499" xlink:href="#linear-gradient"></linearGradient><linearGradient id="linear-gradient-6" y1="0.5" x2="1" y2="0.5" gradientUnits="objectBoundingBox"><stop offset="0.305" stop-color="#2a2740"></stop><stop offset="1" stop-color="#ce9506"></stop></linearGradient></defs><path id="Caminho_1438" data-name="Caminho 1438" d="M22.584,24.829a1.191,1.191,0,0,1-.54,1.039,13.151,13.151,0,0,1-2.91,1.5,12.328,12.328,0,0,1-2.91.747c-.333.054-.672.1-1.019.126s-.7.041-1.059.041a13.738,13.738,0,0,1-5.511-1.1,14.27,14.27,0,0,1-7.528-7.528A13.654,13.654,0,0,1,0,14.139,13.805,13.805,0,0,1,1.1,8.649,13.961,13.961,0,0,1,4.139,4.156,14.793,14.793,0,0,1,8.632,1.121,13.561,13.561,0,0,1,14.139,0,13.944,13.944,0,0,1,22,2.37a1.23,1.23,0,1,1-1.375,2.041A11.522,11.522,0,0,0,9.586,3.348,11.838,11.838,0,0,0,3.348,9.586a11.531,11.531,0,0,0,0,9.107,11.838,11.838,0,0,0,6.238,6.238,11.556,11.556,0,0,0,6.258.812,13.826,13.826,0,0,0,2.455-.625q.458-.209.937-.438a9.072,9.072,0,0,0,.937-.52V16.486a1.205,1.205,0,0,1,2.411,0v8.343Z" transform="translate(0 0)" fill="#2a2740"></path><path id="Caminho_1439" data-name="Caminho 1439" d="M93.952.852A10.945,10.945,0,0,1,97.439,3.2,11.308,11.308,0,0,1,99.806,6.7a10.6,10.6,0,0,1,.873,4.285,10.555,10.555,0,0,1-.747,3.953A11.337,11.337,0,0,1,97.9,18.262a11.045,11.045,0,0,1-3.049,2.411,10.576,10.576,0,0,1-3.8,1.205L96.414,26a1.209,1.209,0,0,1,.479.812,1.14,1.14,0,0,1-.272.893,1.177,1.177,0,0,1-.958.458,1.1,1.1,0,0,1-.747-.248L81.171,17.26v9.817a1.164,1.164,0,0,1-.353.852,1.151,1.151,0,0,1-.852.353,1.206,1.206,0,0,1-1.205-1.205V6.778a1.205,1.205,0,0,1,2.411,0v7.443l5.7,4.367a4.344,4.344,0,0,0,1.331.706,4.831,4.831,0,0,0,1.538.248,8.117,8.117,0,0,0,3.307-.686,8.829,8.829,0,0,0,2.723-1.851,8.582,8.582,0,0,0,1.83-2.723,8.55,8.55,0,0,0,0-6.615,8.544,8.544,0,0,0-1.83-2.723,8.87,8.87,0,0,0-2.723-1.851,8.105,8.105,0,0,0-3.307-.686H79.965a1.164,1.164,0,0,1-.852-.353A1.164,1.164,0,0,1,78.76,1.2,1.164,1.164,0,0,1,79.113.35,1.167,1.167,0,0,1,79.962,0h9.756A10.684,10.684,0,0,1,93.952.852Z" transform="translate(-52.016 0)" fill="#2a2740"></path><g id="Grupo_801" data-name="Grupo 801" transform="translate(76.575 9.256)"><g id="Grupo_800" data-name="Grupo 800"><path id="Caminho_1440" data-name="Caminho 1440" d="M225.931,34.5a5.232,5.232,0,0,0,2.3.57c.951,0,1.453-.394,1.453-.992,0-.57-.435-.9-1.535-1.277-1.521-.543-2.526-1.385-2.526-2.716,0-1.562,1.318-2.744,3.464-2.744a5.355,5.355,0,0,1,2.336.462l-.462,1.657a4.282,4.282,0,0,0-1.9-.435c-.9,0-1.331.421-1.331.883,0,.584.5.842,1.7,1.29,1.616.6,2.363,1.44,2.363,2.73,0,1.535-1.168,2.839-3.681,2.839a5.971,5.971,0,0,1-2.594-.57Z" transform="translate(-225.51 -27.313)" fill="url(#linear-gradient)"></path><path id="Caminho_1441" data-name="Caminho 1441" d="M248.582,29.479H246.11V27.74h7.036v1.739h-2.5v7.416h-2.065Z" transform="translate(-239.115 -27.577)" fill="url(#linear-gradient-2)"></path><path id="Caminho_1442" data-name="Caminho 1442" d="M276.461,31.905c0,3.015-1.807,4.822-4.5,4.822s-4.306-2.051-4.306-4.672c0-2.744,1.766-4.795,4.455-4.795C274.927,27.26,276.461,29.365,276.461,31.905Zm-6.611.109c0,1.806.842,3.07,2.228,3.07s2.2-1.331,2.2-3.11c0-1.657-.774-3.07-2.2-3.07S269.85,30.235,269.85,32.014Z" transform="translate(-253.347 -27.26)" fill="url(#linear-gradient-3)"></path><path id="Caminho_1443" data-name="Caminho 1443" d="M297.59,27.73a18.053,18.053,0,0,1,2.757-.19,4.672,4.672,0,0,1,2.961.72,2.322,2.322,0,0,1,.856,1.929,2.425,2.425,0,0,1-1.616,2.241v.041a2.283,2.283,0,0,1,1.222,1.7c.285,1.046.557,2.241.733,2.594h-2.119a12.263,12.263,0,0,1-.625-2.132c-.258-1.155-.652-1.453-1.508-1.467h-.611v3.6H297.59Zm2.051,3.939h.815c1.032,0,1.643-.516,1.643-1.318,0-.829-.57-1.263-1.521-1.263a4.117,4.117,0,0,0-.937.068v2.513Z" transform="translate(-273.114 -27.445)" fill="url(#linear-gradient-4)"></path><path id="Caminho_1444" data-name="Caminho 1444" d="M326.783,33.024h-3.368V35.2h3.762v1.7H321.35V27.74h5.637v1.7h-3.572v1.9h3.368Z" transform="translate(-288.806 -27.577)" fill="url(#linear-gradient-5)"></path></g></g><path id="Caminho_1445" data-name="Caminho 1445" d="M220.578,4.234H179.908a4.06,4.06,0,0,0-.441.024,3.136,3.136,0,0,0-2.516.91l-2.4,2.4h0a14.185,14.185,0,0,0-2.5-3.406,14.4,14.4,0,0,0-4.513-3.036A13.651,13.651,0,0,0,162.027,0a6.241,6.241,0,0,0-2.475.489,6.437,6.437,0,0,0-2.017,1.351,6.257,6.257,0,0,0-1.372,2.027,6.175,6.175,0,0,0-.5,2.455V21.586a1.221,1.221,0,0,0,.346.893,1.134,1.134,0,0,0,.839.353,1.193,1.193,0,0,0,.879-.353,1.221,1.221,0,0,0,.346-.893V6.323a3.96,3.96,0,0,1,1.148-2.764,3.988,3.988,0,0,1,1.229-.832,3.791,3.791,0,0,1,1.542-.312,11.388,11.388,0,0,1,4.587.941,11.784,11.784,0,0,1,6.163,6.02h0l-2.537,2.537a3.173,3.173,0,0,0,0,4.475l2.577,2.577a11.742,11.742,0,0,1-4.567,5.26,11.284,11.284,0,0,1-3.742,1.48,6.333,6.333,0,0,1-1.538.166h-6.071a1.171,1.171,0,0,0-.852.346,1.187,1.187,0,0,0-.353.879,1.139,1.139,0,0,0,.353.839,1.171,1.171,0,0,0,.852.346h6.071a7.787,7.787,0,0,0,1.457-.126c.445-.081.679-.126.706-.126a14.027,14.027,0,0,0,4.452-1.83,14.265,14.265,0,0,0,3.514-3.121,13.972,13.972,0,0,0,1.518-2.326l2.367,2.367a3.144,3.144,0,0,0,2.554.907c.139.014.268.017.4.017h40.669a4.69,4.69,0,0,0,4.683-4.683V8.917A4.682,4.682,0,0,0,220.578,4.234ZM223.4,19.365a2.826,2.826,0,0,1-2.822,2.822H179.908a3.084,3.084,0,0,1-.309-.017l-.227,0a1.311,1.311,0,0,1-1.1-.363l-6.74-6.74a1.308,1.308,0,0,1,0-1.847l6.74-6.74a1.293,1.293,0,0,1,1.087-.367l.112.014.112-.014a3,3,0,0,1,.329-.02h40.669A2.826,2.826,0,0,1,223.4,8.917Z" transform="translate(-102.804 0)" fill="url(#linear-gradient-6)"></path></svg> 